<svg width="40" height="40" viewBox="0 0 40 40" fill="none" xmlns="http://www.w3.org/2000/svg">
<path d="M18.125 21.65C18.4358 21.65 18.7339 21.7735 18.9537 21.9932C19.1734 22.213 19.2969 22.5111 19.2969 22.8219C19.2969 23.1327 19.1734 23.4308 18.9537 23.6505C18.7339 23.8703 18.4358 23.9938 18.125 23.9938C17.8142 23.9938 17.5161 23.8703 17.2964 23.6505C17.0766 23.4308 16.9531 23.1327 16.9531 22.8219C16.9531 22.5111 17.0766 22.213 17.2964 21.9932C17.5161 21.7735 17.8142 21.65 18.125 21.65V21.65ZM18.125 12.5056C20.0581 12.5056 21.5994 14.0919 21.5994 16.1619C21.5994 17.2606 21.1981 17.8644 20.2363 18.6331L19.7169 19.0363C19.2556 19.4 19.1 19.5988 19.0681 19.8763L19.0475 20.1688C19.0058 20.3993 18.8792 20.6058 18.6928 20.7477C18.5064 20.8896 18.2736 20.9566 18.0403 20.9354C17.807 20.9142 17.59 20.8065 17.4322 20.6334C17.2744 20.4602 17.1871 20.2343 17.1875 20C17.1875 18.9313 17.5813 18.3425 18.53 17.585L19.0513 17.1819C19.5913 16.7506 19.7263 16.5406 19.7263 16.1619C19.7263 15.1156 19.01 14.3806 18.125 14.3806C17.1988 14.3806 16.5144 15.0669 16.5256 16.1525C16.5281 16.4011 16.4317 16.6406 16.2577 16.8182C16.1715 16.9061 16.0688 16.9762 15.9556 17.0244C15.8423 17.0727 15.7206 17.0982 15.5975 17.0994C15.3489 17.1019 15.1094 17.0055 14.9319 16.8314C14.7543 16.6574 14.6531 16.4199 14.6506 16.1713C14.63 14.0375 16.16 12.5056 18.125 12.5056V12.5056ZM8.75001 18.125C8.75077 16.0963 9.40957 14.1226 10.6275 12.5002C11.8454 10.8778 13.5568 9.69424 15.5046 9.1272C17.4524 8.56016 19.5316 8.64026 21.4301 9.35545C23.3285 10.0706 24.9437 11.3823 26.0333 13.0936C27.1228 14.8049 27.6278 16.8235 27.4725 18.8462C27.3172 20.8689 26.51 22.7867 25.172 24.3116C23.834 25.8366 22.0375 26.8863 20.0521 27.3033C18.0668 27.7204 15.9997 27.4821 14.1613 26.6244L9.87126 27.4813C9.72003 27.5114 9.56371 27.5037 9.41615 27.459C9.26858 27.4142 9.13434 27.3337 9.0253 27.2247C8.91627 27.1157 8.83581 26.9814 8.79106 26.8339C8.74631 26.6863 8.73865 26.53 8.76876 26.3788L9.62563 22.0869C9.04706 20.8463 8.74814 19.4938 8.75001 18.125V18.125ZM18.125 10.625C16.8412 10.6247 15.5789 10.9539 14.4588 11.5811C13.3386 12.2083 12.3983 13.1126 11.7277 14.2073C11.0571 15.302 10.6787 16.5505 10.6288 17.8333C10.5789 19.1161 10.859 20.3902 11.4425 21.5338C11.5388 21.7221 11.5685 21.9376 11.5269 22.145L10.8819 25.3681L14.105 24.7231C14.3124 24.6815 14.5279 24.7112 14.7163 24.8075C15.7264 25.3222 16.84 25.6012 17.9735 25.6235C19.1069 25.6459 20.2307 25.411 21.2603 24.9365C22.2899 24.462 23.1986 23.7603 23.9179 22.8841C24.6373 22.0079 25.1487 20.98 25.4136 19.8777C25.6785 18.7754 25.6901 17.6274 25.4475 16.52C25.2049 15.4126 24.7144 14.3746 24.0129 13.484C23.3114 12.5935 22.4171 11.8735 21.3973 11.3783C20.3775 10.8831 19.2587 10.6256 18.125 10.625ZM15.9875 29.1725C17.6535 30.52 19.7323 31.2535 21.875 31.25C23.2888 31.25 24.6313 30.9369 25.8369 30.3744L30.1288 31.2313C30.28 31.2614 30.4363 31.2537 30.5839 31.209C30.7314 31.1642 30.8657 31.0837 30.9747 30.9747C31.0837 30.8657 31.1642 30.7314 31.209 30.5839C31.2537 30.4363 31.2614 30.28 31.2313 30.1288L30.3744 25.8388C30.9369 24.6331 31.25 23.2888 31.25 21.875C31.2531 19.7329 30.5196 17.6549 29.1725 15.9894C29.4397 17.3775 29.4441 18.8034 29.1856 20.1931C29.5788 21.9112 29.3565 23.7128 28.5575 25.2838C28.4612 25.4721 28.4315 25.6876 28.4731 25.895L29.1181 29.1181L25.8931 28.4731C25.6863 28.4319 25.4716 28.4616 25.2838 28.5575C23.7125 29.3577 21.9099 29.58 20.1913 29.1856C18.8015 29.444 17.3756 29.4396 15.9875 29.1725V29.1725Z" fill="white"/>
</svg>
