<svg width="692" height="692" viewBox="0 0 692 692" fill="none" xmlns="http://www.w3.org/2000/svg">
<g clip-path="url(#clip0_336_2806)">
<path d="M642.922 0L49.078 0C21.973 0 0 21.973 0 49.078L0 642.922C0 670.027 21.973 692 49.078 692H642.922C670.027 692 692 670.027 692 642.922V49.078C692 21.973 670.027 0 642.922 0Z" fill="white"/>
<path d="M273.235 41.9395H251.636V63.5382H273.235V41.9395Z" fill="black"/>
<path d="M315.173 41.9395H293.575V63.5382H315.173V41.9395Z" fill="black"/>
<path d="M399.053 41.9395H377.454V63.5382H399.053V41.9395Z" fill="black"/>
<path d="M440.992 41.9395H419.393V63.5382H440.992V41.9395Z" fill="black"/>
<path d="M461.962 41.9395H440.363V63.5382H461.962V41.9395Z" fill="black"/>
<path d="M482.932 41.9395H461.333V63.5382H482.932V41.9395Z" fill="black"/>
<path d="M252.265 62.9092H230.666V84.508H252.265V62.9092Z" fill="black"/>
<path d="M273.235 62.9092H251.636V84.508H273.235V62.9092Z" fill="black"/>
<path d="M315.173 62.9092H293.575V84.508H315.173V62.9092Z" fill="black"/>
<path d="M336.143 62.9092H314.544V84.508H336.143V62.9092Z" fill="black"/>
<path d="M378.083 62.9092H356.484V84.508H378.083V62.9092Z" fill="black"/>
<path d="M399.053 62.9092H377.454V84.508H399.053V62.9092Z" fill="black"/>
<path d="M420.022 62.9092H398.423V84.508H420.022V62.9092Z" fill="black"/>
<path d="M440.992 62.9092H419.393V84.508H440.992V62.9092Z" fill="black"/>
<path d="M231.295 83.8789H209.696V105.478H231.295V83.8789Z" fill="black"/>
<path d="M273.235 83.8789H251.636V105.478H273.235V83.8789Z" fill="black"/>
<path d="M315.173 83.8789H293.575V105.478H315.173V83.8789Z" fill="black"/>
<path d="M378.083 83.8789H356.484V105.478H378.083V83.8789Z" fill="black"/>
<path d="M461.962 83.8789H440.363V105.478H461.962V83.8789Z" fill="black"/>
<path d="M482.932 83.8789H461.333V105.478H482.932V83.8789Z" fill="black"/>
<path d="M231.295 104.849H209.696V126.447H231.295V104.849Z" fill="black"/>
<path d="M252.265 104.849H230.666V126.447H252.265V104.849Z" fill="black"/>
<path d="M273.235 104.849H251.636V126.447H273.235V104.849Z" fill="black"/>
<path d="M294.204 104.849H272.605V126.447H294.204V104.849Z" fill="black"/>
<path d="M315.173 104.849H293.575V126.447H315.173V104.849Z" fill="black"/>
<path d="M336.143 104.849H314.544V126.447H336.143V104.849Z" fill="black"/>
<path d="M378.083 104.849H356.484V126.447H378.083V104.849Z" fill="black"/>
<path d="M420.022 104.849H398.423V126.447H420.022V104.849Z" fill="black"/>
<path d="M461.962 104.849H440.363V126.447H461.962V104.849Z" fill="black"/>
<path d="M231.295 125.818H209.696V147.417H231.295V125.818Z" fill="black"/>
<path d="M252.265 125.818H230.666V147.417H252.265V125.818Z" fill="black"/>
<path d="M273.235 125.818H251.636V147.417H273.235V125.818Z" fill="black"/>
<path d="M294.204 125.818H272.605V147.417H294.204V125.818Z" fill="black"/>
<path d="M336.143 125.818H314.544V147.417H336.143V125.818Z" fill="black"/>
<path d="M399.053 125.818H377.454V147.417H399.053V125.818Z" fill="black"/>
<path d="M420.022 125.818H398.423V147.417H420.022V125.818Z" fill="black"/>
<path d="M440.992 125.818H419.393V147.417H440.992V125.818Z" fill="black"/>
<path d="M461.962 125.818H440.363V147.417H461.962V125.818Z" fill="black"/>
<path d="M231.295 146.788H209.696V168.387H231.295V146.788Z" fill="black"/>
<path d="M273.235 146.788H251.636V168.387H273.235V146.788Z" fill="black"/>
<path d="M336.143 146.788H314.544V168.387H336.143V146.788Z" fill="black"/>
<path d="M357.113 146.788H335.515V168.387H357.113V146.788Z" fill="black"/>
<path d="M378.083 146.788H356.484V168.387H378.083V146.788Z" fill="black"/>
<path d="M420.022 146.788H398.423V168.387H420.022V146.788Z" fill="black"/>
<path d="M482.932 146.788H461.333V168.387H482.932V146.788Z" fill="black"/>
<path d="M231.295 167.758H209.696V189.357H231.295V167.758Z" fill="black"/>
<path d="M273.235 167.758H251.636V189.357H273.235V167.758Z" fill="black"/>
<path d="M315.173 167.758H293.575V189.357H315.173V167.758Z" fill="black"/>
<path d="M357.113 167.758H335.515V189.357H357.113V167.758Z" fill="black"/>
<path d="M399.053 167.758H377.454V189.357H399.053V167.758Z" fill="black"/>
<path d="M440.992 167.758H419.393V189.357H440.992V167.758Z" fill="black"/>
<path d="M482.932 167.758H461.333V189.357H482.932V167.758Z" fill="black"/>
<path d="M231.295 188.728H209.696V210.326H231.295V188.728Z" fill="black"/>
<path d="M273.235 188.728H251.636V210.326H273.235V188.728Z" fill="black"/>
<path d="M294.204 188.728H272.605V210.326H294.204V188.728Z" fill="black"/>
<path d="M357.113 188.728H335.515V210.326H357.113V188.728Z" fill="black"/>
<path d="M378.083 188.728H356.484V210.326H378.083V188.728Z" fill="black"/>
<path d="M399.053 188.728H377.454V210.326H399.053V188.728Z" fill="black"/>
<path d="M482.932 188.728H461.333V210.326H482.932V188.728Z" fill="black"/>
<path d="M63.5373 209.697H41.9385V231.296H63.5373V209.697Z" fill="black"/>
<path d="M105.477 209.697H83.8779V231.296H105.477V209.697Z" fill="black"/>
<path d="M126.447 209.697H104.848V231.296H126.447V209.697Z" fill="black"/>
<path d="M147.416 209.697H125.817V231.296H147.416V209.697Z" fill="black"/>
<path d="M168.386 209.697H146.787V231.296H168.386V209.697Z" fill="black"/>
<path d="M189.356 209.697H167.757V231.296H189.356V209.697Z" fill="black"/>
<path d="M273.235 209.697H251.636V231.296H273.235V209.697Z" fill="black"/>
<path d="M420.022 209.697H398.423V231.296H420.022V209.697Z" fill="black"/>
<path d="M461.962 209.697H440.363V231.296H461.962V209.697Z" fill="black"/>
<path d="M524.871 209.697H503.272V231.296H524.871V209.697Z" fill="black"/>
<path d="M545.84 209.697H524.242V231.296H545.84V209.697Z" fill="black"/>
<path d="M566.81 209.697H545.211V231.296H566.81V209.697Z" fill="black"/>
<path d="M587.78 209.697H566.181V231.296H587.78V209.697Z" fill="black"/>
<path d="M608.75 209.697H587.151V231.296H608.75V209.697Z" fill="black"/>
<path d="M147.416 230.667H125.817V252.266H147.416V230.667Z" fill="black"/>
<path d="M210.325 230.667H188.727V252.266H210.325V230.667Z" fill="black"/>
<path d="M252.265 230.667H230.666V252.266H252.265V230.667Z" fill="black"/>
<path d="M294.204 230.667H272.605V252.266H294.204V230.667Z" fill="black"/>
<path d="M336.143 230.667H314.544V252.266H336.143V230.667Z" fill="black"/>
<path d="M399.053 230.667H377.454V252.266H399.053V230.667Z" fill="black"/>
<path d="M420.022 230.667H398.423V252.266H420.022V230.667Z" fill="black"/>
<path d="M440.992 230.667H419.393V252.266H440.992V230.667Z" fill="black"/>
<path d="M461.962 230.667H440.363V252.266H461.962V230.667Z" fill="black"/>
<path d="M482.932 230.667H461.333V252.266H482.932V230.667Z" fill="black"/>
<path d="M503.901 230.667H482.302V252.266H503.901V230.667Z" fill="black"/>
<path d="M524.871 230.667H503.272V252.266H524.871V230.667Z" fill="black"/>
<path d="M545.84 230.667H524.242V252.266H545.84V230.667Z" fill="black"/>
<path d="M566.81 230.667H545.211V252.266H566.81V230.667Z" fill="black"/>
<path d="M650.689 230.667H629.09V252.266H650.689V230.667Z" fill="black"/>
<path d="M63.5373 251.637H41.9385V273.236H63.5373V251.637Z" fill="black"/>
<path d="M126.447 251.637H104.848V273.236H126.447V251.637Z" fill="black"/>
<path d="M147.416 251.637H125.817V273.236H147.416V251.637Z" fill="black"/>
<path d="M189.356 251.637H167.757V273.236H189.356V251.637Z" fill="black"/>
<path d="M210.325 251.637H188.727V273.236H210.325V251.637Z" fill="black"/>
<path d="M252.265 251.637H230.666V273.236H252.265V251.637Z" fill="black"/>
<path d="M273.235 251.637H251.636V273.236H273.235V251.637Z" fill="black"/>
<path d="M294.204 251.637H272.605V273.236H294.204V251.637Z" fill="black"/>
<path d="M336.143 251.637H314.544V273.236H336.143V251.637Z" fill="black"/>
<path d="M357.113 251.637H335.515V273.236H357.113V251.637Z" fill="black"/>
<path d="M378.083 251.637H356.484V273.236H378.083V251.637Z" fill="black"/>
<path d="M399.053 251.637H377.454V273.236H399.053V251.637Z" fill="black"/>
<path d="M482.932 251.637H461.333V273.236H482.932V251.637Z" fill="black"/>
<path d="M503.901 251.637H482.302V273.236H503.901V251.637Z" fill="black"/>
<path d="M524.871 251.637H503.272V273.236H524.871V251.637Z" fill="black"/>
<path d="M126.447 272.606H104.848V294.205H126.447V272.606Z" fill="black"/>
<path d="M147.416 272.606H125.817V294.205H147.416V272.606Z" fill="black"/>
<path d="M168.386 272.606H146.787V294.205H168.386V272.606Z" fill="black"/>
<path d="M210.325 272.606H188.727V294.205H210.325V272.606Z" fill="black"/>
<path d="M231.295 272.606H209.696V294.205H231.295V272.606Z" fill="black"/>
<path d="M294.204 272.606H272.605V294.205H294.204V272.606Z" fill="black"/>
<path d="M336.143 272.606H314.544V294.205H336.143V272.606Z" fill="black"/>
<path d="M399.053 272.606H377.454V294.205H399.053V272.606Z" fill="black"/>
<path d="M545.84 272.606H524.242V294.205H545.84V272.606Z" fill="black"/>
<path d="M587.78 272.606H566.181V294.205H587.78V272.606Z" fill="black"/>
<path d="M629.719 272.606H608.121V294.205H629.719V272.606Z" fill="black"/>
<path d="M63.5373 293.576H41.9385V315.175H63.5373V293.576Z" fill="black"/>
<path d="M105.477 293.576H83.8779V315.175H105.477V293.576Z" fill="black"/>
<path d="M168.386 293.576H146.787V315.175H168.386V293.576Z" fill="black"/>
<path d="M189.356 293.576H167.757V315.175H189.356V293.576Z" fill="black"/>
<path d="M231.295 293.576H209.696V315.175H231.295V293.576Z" fill="black"/>
<path d="M252.265 293.576H230.666V315.175H252.265V293.576Z" fill="black"/>
<path d="M357.113 293.576H335.515V315.175H357.113V293.576Z" fill="black"/>
<path d="M378.083 293.576H356.484V315.175H378.083V293.576Z" fill="black"/>
<path d="M420.022 293.576H398.423V315.175H420.022V293.576Z" fill="black"/>
<path d="M440.992 293.576H419.393V315.175H440.992V293.576Z" fill="black"/>
<path d="M587.78 293.576H566.181V315.175H587.78V293.576Z" fill="black"/>
<path d="M608.75 293.576H587.151V315.175H608.75V293.576Z" fill="black"/>
<path d="M63.5373 314.546H41.9385V336.145H63.5373V314.546Z" fill="black"/>
<path d="M84.507 314.546H62.9082V336.145H84.507V314.546Z" fill="black"/>
<path d="M231.295 314.546H209.696V336.145H231.295V314.546Z" fill="black"/>
<path d="M315.173 314.546H293.575V336.145H315.173V314.546Z" fill="black"/>
<path d="M399.053 314.546H377.454V336.145H399.053V314.546Z" fill="black"/>
<path d="M420.022 314.546H398.423V336.145H420.022V314.546Z" fill="black"/>
<path d="M440.992 314.546H419.393V336.145H440.992V314.546Z" fill="black"/>
<path d="M461.962 314.546H440.363V336.145H461.962V314.546Z" fill="black"/>
<path d="M482.932 314.546H461.333V336.145H482.932V314.546Z" fill="black"/>
<path d="M503.901 314.546H482.302V336.145H503.901V314.546Z" fill="black"/>
<path d="M524.871 314.546H503.272V336.145H524.871V314.546Z" fill="black"/>
<path d="M566.81 314.546H545.211V336.145H566.81V314.546Z" fill="black"/>
<path d="M650.689 314.546H629.09V336.145H650.689V314.546Z" fill="black"/>
<path d="M126.447 335.516H104.848V357.114H126.447V335.516Z" fill="black"/>
<path d="M147.416 335.516H125.817V357.114H147.416V335.516Z" fill="black"/>
<path d="M168.386 335.516H146.787V357.114H168.386V335.516Z" fill="black"/>
<path d="M189.356 335.516H167.757V357.114H189.356V335.516Z" fill="black"/>
<path d="M252.265 335.516H230.666V357.114H252.265V335.516Z" fill="black"/>
<path d="M378.083 335.516H356.484V357.114H378.083V335.516Z" fill="black"/>
<path d="M399.053 335.516H377.454V357.114H399.053V335.516Z" fill="black"/>
<path d="M420.022 335.516H398.423V357.114H420.022V335.516Z" fill="black"/>
<path d="M524.871 335.516H503.272V357.114H524.871V335.516Z" fill="black"/>
<path d="M545.84 335.516H524.242V357.114H545.84V335.516Z" fill="black"/>
<path d="M587.78 335.516H566.181V357.114H587.78V335.516Z" fill="black"/>
<path d="M608.75 335.516H587.151V357.114H608.75V335.516Z" fill="black"/>
<path d="M105.477 356.485H83.8779V378.084H105.477V356.485Z" fill="black"/>
<path d="M126.447 356.485H104.848V378.084H126.447V356.485Z" fill="black"/>
<path d="M147.416 356.485H125.817V378.084H147.416V356.485Z" fill="black"/>
<path d="M294.204 356.485H272.605V378.084H294.204V356.485Z" fill="black"/>
<path d="M357.113 356.485H335.515V378.084H357.113V356.485Z" fill="black"/>
<path d="M378.083 356.485H356.484V378.084H378.083V356.485Z" fill="black"/>
<path d="M461.962 356.485H440.363V378.084H461.962V356.485Z" fill="black"/>
<path d="M503.901 356.485H482.302V378.084H503.901V356.485Z" fill="black"/>
<path d="M524.871 356.485H503.272V378.084H524.871V356.485Z" fill="black"/>
<path d="M545.84 356.485H524.242V378.084H545.84V356.485Z" fill="black"/>
<path d="M566.81 356.485H545.211V378.084H566.81V356.485Z" fill="black"/>
<path d="M629.719 356.485H608.121V378.084H629.719V356.485Z" fill="black"/>
<path d="M63.5373 377.455H41.9385V399.054H63.5373V377.455Z" fill="black"/>
<path d="M105.477 377.455H83.8779V399.054H105.477V377.455Z" fill="black"/>
<path d="M147.416 377.455H125.817V399.054H147.416V377.455Z" fill="black"/>
<path d="M189.356 377.455H167.757V399.054H189.356V377.455Z" fill="black"/>
<path d="M252.265 377.455H230.666V399.054H252.265V377.455Z" fill="black"/>
<path d="M273.235 377.455H251.636V399.054H273.235V377.455Z" fill="black"/>
<path d="M294.204 377.455H272.605V399.054H294.204V377.455Z" fill="black"/>
<path d="M378.083 377.455H356.484V399.054H378.083V377.455Z" fill="black"/>
<path d="M420.022 377.455H398.423V399.054H420.022V377.455Z" fill="black"/>
<path d="M482.932 377.455H461.333V399.054H482.932V377.455Z" fill="black"/>
<path d="M545.84 377.455H524.242V399.054H545.84V377.455Z" fill="black"/>
<path d="M587.78 377.455H566.181V399.054H587.78V377.455Z" fill="black"/>
<path d="M608.75 377.455H587.151V399.054H608.75V377.455Z" fill="black"/>
<path d="M63.5373 398.425H41.9385V420.023H63.5373V398.425Z" fill="black"/>
<path d="M84.507 398.425H62.9082V420.023H84.507V398.425Z" fill="black"/>
<path d="M105.477 398.425H83.8779V420.023H105.477V398.425Z" fill="black"/>
<path d="M126.447 398.425H104.848V420.023H126.447V398.425Z" fill="black"/>
<path d="M147.416 398.425H125.817V420.023H147.416V398.425Z" fill="black"/>
<path d="M273.235 398.425H251.636V420.023H273.235V398.425Z" fill="black"/>
<path d="M294.204 398.425H272.605V420.023H294.204V398.425Z" fill="black"/>
<path d="M315.173 398.425H293.575V420.023H315.173V398.425Z" fill="black"/>
<path d="M336.143 398.425H314.544V420.023H336.143V398.425Z" fill="black"/>
<path d="M357.113 398.425H335.515V420.023H357.113V398.425Z" fill="black"/>
<path d="M399.053 398.425H377.454V420.023H399.053V398.425Z" fill="black"/>
<path d="M461.962 398.425H440.363V420.023H461.962V398.425Z" fill="black"/>
<path d="M482.932 398.425H461.333V420.023H482.932V398.425Z" fill="black"/>
<path d="M524.871 398.425H503.272V420.023H524.871V398.425Z" fill="black"/>
<path d="M545.84 398.425H524.242V420.023H545.84V398.425Z" fill="black"/>
<path d="M566.81 398.425H545.211V420.023H566.81V398.425Z" fill="black"/>
<path d="M608.75 398.425H587.151V420.023H608.75V398.425Z" fill="black"/>
<path d="M650.689 398.425H629.09V420.023H650.689V398.425Z" fill="black"/>
<path d="M63.5373 419.394H41.9385V440.993H63.5373V419.394Z" fill="black"/>
<path d="M105.477 419.394H83.8779V440.993H105.477V419.394Z" fill="black"/>
<path d="M126.447 419.394H104.848V440.993H126.447V419.394Z" fill="black"/>
<path d="M147.416 419.394H125.817V440.993H147.416V419.394Z" fill="black"/>
<path d="M168.386 419.394H146.787V440.993H168.386V419.394Z" fill="black"/>
<path d="M189.356 419.394H167.757V440.993H189.356V419.394Z" fill="black"/>
<path d="M210.325 419.394H188.727V440.993H210.325V419.394Z" fill="black"/>
<path d="M231.295 419.394H209.696V440.993H231.295V419.394Z" fill="black"/>
<path d="M336.143 419.394H314.544V440.993H336.143V419.394Z" fill="black"/>
<path d="M357.113 419.394H335.515V440.993H357.113V419.394Z" fill="black"/>
<path d="M378.083 419.394H356.484V440.993H378.083V419.394Z" fill="black"/>
<path d="M420.022 419.394H398.423V440.993H420.022V419.394Z" fill="black"/>
<path d="M482.932 419.394H461.333V440.993H482.932V419.394Z" fill="black"/>
<path d="M503.901 419.394H482.302V440.993H503.901V419.394Z" fill="black"/>
<path d="M545.84 419.394H524.242V440.993H545.84V419.394Z" fill="black"/>
<path d="M608.75 419.394H587.151V440.993H608.75V419.394Z" fill="black"/>
<path d="M63.5373 440.364H41.9385V461.963H63.5373V440.364Z" fill="black"/>
<path d="M105.477 440.364H83.8779V461.963H105.477V440.364Z" fill="black"/>
<path d="M126.447 440.364H104.848V461.963H126.447V440.364Z" fill="black"/>
<path d="M231.295 440.364H209.696V461.963H231.295V440.364Z" fill="black"/>
<path d="M336.143 440.364H314.544V461.963H336.143V440.364Z" fill="black"/>
<path d="M378.083 440.364H356.484V461.963H378.083V440.364Z" fill="black"/>
<path d="M399.053 440.364H377.454V461.963H399.053V440.364Z" fill="black"/>
<path d="M440.992 440.364H419.393V461.963H440.992V440.364Z" fill="black"/>
<path d="M461.962 440.364H440.363V461.963H461.962V440.364Z" fill="black"/>
<path d="M482.932 440.364H461.333V461.963H482.932V440.364Z" fill="black"/>
<path d="M524.871 440.364H503.272V461.963H524.871V440.364Z" fill="black"/>
<path d="M545.84 440.364H524.242V461.963H545.84V440.364Z" fill="black"/>
<path d="M566.81 440.364H545.211V461.963H566.81V440.364Z" fill="black"/>
<path d="M629.719 440.364H608.121V461.963H629.719V440.364Z" fill="black"/>
<path d="M63.5373 461.334H41.9385V482.933H63.5373V461.334Z" fill="black"/>
<path d="M105.477 461.334H83.8779V482.933H105.477V461.334Z" fill="black"/>
<path d="M126.447 461.334H104.848V482.933H126.447V461.334Z" fill="black"/>
<path d="M147.416 461.334H125.817V482.933H147.416V461.334Z" fill="black"/>
<path d="M189.356 461.334H167.757V482.933H189.356V461.334Z" fill="black"/>
<path d="M210.325 461.334H188.727V482.933H210.325V461.334Z" fill="black"/>
<path d="M231.295 461.334H209.696V482.933H231.295V461.334Z" fill="black"/>
<path d="M252.265 461.334H230.666V482.933H252.265V461.334Z" fill="black"/>
<path d="M273.235 461.334H251.636V482.933H273.235V461.334Z" fill="black"/>
<path d="M294.204 461.334H272.605V482.933H294.204V461.334Z" fill="black"/>
<path d="M357.113 461.334H335.515V482.933H357.113V461.334Z" fill="black"/>
<path d="M378.083 461.334H356.484V482.933H378.083V461.334Z" fill="black"/>
<path d="M399.053 461.334H377.454V482.933H399.053V461.334Z" fill="black"/>
<path d="M420.022 461.334H398.423V482.933H420.022V461.334Z" fill="black"/>
<path d="M482.932 461.334H461.333V482.933H482.932V461.334Z" fill="black"/>
<path d="M503.901 461.334H482.302V482.933H503.901V461.334Z" fill="black"/>
<path d="M524.871 461.334H503.272V482.933H524.871V461.334Z" fill="black"/>
<path d="M545.84 461.334H524.242V482.933H545.84V461.334Z" fill="black"/>
<path d="M566.81 461.334H545.211V482.933H566.81V461.334Z" fill="black"/>
<path d="M608.75 461.334H587.151V482.933H608.75V461.334Z" fill="black"/>
<path d="M629.719 461.334H608.121V482.933H629.719V461.334Z" fill="black"/>
<path d="M650.689 461.334H629.09V482.933H650.689V461.334Z" fill="black"/>
<path d="M231.295 482.303H209.696V503.902H231.295V482.303Z" fill="black"/>
<path d="M252.265 482.303H230.666V503.902H252.265V482.303Z" fill="black"/>
<path d="M315.173 482.303H293.575V503.902H315.173V482.303Z" fill="black"/>
<path d="M399.053 482.303H377.454V503.902H399.053V482.303Z" fill="black"/>
<path d="M420.022 482.303H398.423V503.902H420.022V482.303Z" fill="black"/>
<path d="M440.992 482.303H419.393V503.902H440.992V482.303Z" fill="black"/>
<path d="M482.932 482.303H461.333V503.902H482.932V482.303Z" fill="black"/>
<path d="M566.81 482.303H545.211V503.902H566.81V482.303Z" fill="black"/>
<path d="M587.78 482.303H566.181V503.902H587.78V482.303Z" fill="black"/>
<path d="M608.75 482.303H587.151V503.902H608.75V482.303Z" fill="black"/>
<path d="M629.719 482.303H608.121V503.902H629.719V482.303Z" fill="black"/>
<path d="M650.689 482.303H629.09V503.902H650.689V482.303Z" fill="black"/>
<path d="M252.265 503.272H230.666V524.871H252.265V503.272Z" fill="black"/>
<path d="M294.204 503.272H272.605V524.871H294.204V503.272Z" fill="black"/>
<path d="M315.173 503.272H293.575V524.871H315.173V503.272Z" fill="black"/>
<path d="M378.083 503.272H356.484V524.871H378.083V503.272Z" fill="black"/>
<path d="M399.053 503.272H377.454V524.871H399.053V503.272Z" fill="black"/>
<path d="M420.022 503.272H398.423V524.871H420.022V503.272Z" fill="black"/>
<path d="M461.962 503.272H440.363V524.871H461.962V503.272Z" fill="black"/>
<path d="M482.932 503.272H461.333V524.871H482.932V503.272Z" fill="black"/>
<path d="M524.871 503.272H503.272V524.871H524.871V503.272Z" fill="black"/>
<path d="M566.81 503.272H545.211V524.871H566.81V503.272Z" fill="black"/>
<path d="M587.78 503.272H566.181V524.871H587.78V503.272Z" fill="black"/>
<path d="M608.75 503.272H587.151V524.871H608.75V503.272Z" fill="black"/>
<path d="M231.295 524.242H209.696V545.841H231.295V524.242Z" fill="black"/>
<path d="M252.265 524.242H230.666V545.841H252.265V524.242Z" fill="black"/>
<path d="M273.235 524.242H251.636V545.841H273.235V524.242Z" fill="black"/>
<path d="M294.204 524.242H272.605V545.841H294.204V524.242Z" fill="black"/>
<path d="M315.173 524.242H293.575V545.841H315.173V524.242Z" fill="black"/>
<path d="M357.113 524.242H335.515V545.841H357.113V524.242Z" fill="black"/>
<path d="M378.083 524.242H356.484V545.841H378.083V524.242Z" fill="black"/>
<path d="M399.053 524.242H377.454V545.841H399.053V524.242Z" fill="black"/>
<path d="M461.962 524.242H440.363V545.841H461.962V524.242Z" fill="black"/>
<path d="M482.932 524.242H461.333V545.841H482.932V524.242Z" fill="black"/>
<path d="M566.81 524.242H545.211V545.841H566.81V524.242Z" fill="black"/>
<path d="M629.719 524.242H608.121V545.841H629.719V524.242Z" fill="black"/>
<path d="M650.689 524.242H629.09V545.841H650.689V524.242Z" fill="black"/>
<path d="M231.295 545.212H209.696V566.811H231.295V545.212Z" fill="black"/>
<path d="M252.265 545.212H230.666V566.811H252.265V545.212Z" fill="black"/>
<path d="M315.173 545.212H293.575V566.811H315.173V545.212Z" fill="black"/>
<path d="M378.083 545.212H356.484V566.811H378.083V545.212Z" fill="black"/>
<path d="M420.022 545.212H398.423V566.811H420.022V545.212Z" fill="black"/>
<path d="M482.932 545.212H461.333V566.811H482.932V545.212Z" fill="black"/>
<path d="M503.901 545.212H482.302V566.811H503.901V545.212Z" fill="black"/>
<path d="M524.871 545.212H503.272V566.811H524.871V545.212Z" fill="black"/>
<path d="M545.84 545.212H524.242V566.811H545.84V545.212Z" fill="black"/>
<path d="M566.81 545.212H545.211V566.811H566.81V545.212Z" fill="black"/>
<path d="M608.75 545.212H587.151V566.811H608.75V545.212Z" fill="black"/>
<path d="M231.295 566.182H209.696V587.78H231.295V566.182Z" fill="black"/>
<path d="M252.265 566.182H230.666V587.78H252.265V566.182Z" fill="black"/>
<path d="M315.173 566.182H293.575V587.78H315.173V566.182Z" fill="black"/>
<path d="M357.113 566.182H335.515V587.78H357.113V566.182Z" fill="black"/>
<path d="M399.053 566.182H377.454V587.78H399.053V566.182Z" fill="black"/>
<path d="M420.022 566.182H398.423V587.78H420.022V566.182Z" fill="black"/>
<path d="M440.992 566.182H419.393V587.78H440.992V566.182Z" fill="black"/>
<path d="M461.962 566.182H440.363V587.78H461.962V566.182Z" fill="black"/>
<path d="M545.84 566.182H524.242V587.78H545.84V566.182Z" fill="black"/>
<path d="M587.78 566.182H566.181V587.78H587.78V566.182Z" fill="black"/>
<path d="M608.75 566.182H587.151V587.78H608.75V566.182Z" fill="black"/>
<path d="M629.719 566.182H608.121V587.78H629.719V566.182Z" fill="black"/>
<path d="M650.689 566.182H629.09V587.78H650.689V566.182Z" fill="black"/>
<path d="M231.295 587.151H209.696V608.75H231.295V587.151Z" fill="black"/>
<path d="M252.265 587.151H230.666V608.75H252.265V587.151Z" fill="black"/>
<path d="M273.235 587.151H251.636V608.75H273.235V587.151Z" fill="black"/>
<path d="M357.113 587.151H335.515V608.75H357.113V587.151Z" fill="black"/>
<path d="M378.083 587.151H356.484V608.75H378.083V587.151Z" fill="black"/>
<path d="M399.053 587.151H377.454V608.75H399.053V587.151Z" fill="black"/>
<path d="M440.992 587.151H419.393V608.75H440.992V587.151Z" fill="black"/>
<path d="M524.871 587.151H503.272V608.75H524.871V587.151Z" fill="black"/>
<path d="M545.84 587.151H524.242V608.75H545.84V587.151Z" fill="black"/>
<path d="M566.81 587.151H545.211V608.75H566.81V587.151Z" fill="black"/>
<path d="M587.78 587.151H566.181V608.75H587.78V587.151Z" fill="black"/>
<path d="M608.75 587.151H587.151V608.75H608.75V587.151Z" fill="black"/>
<path d="M629.719 587.151H608.121V608.75H629.719V587.151Z" fill="black"/>
<path d="M252.265 608.121H230.666V629.72H252.265V608.121Z" fill="black"/>
<path d="M315.173 608.121H293.575V629.72H315.173V608.121Z" fill="black"/>
<path d="M482.932 608.121H461.333V629.72H482.932V608.121Z" fill="black"/>
<path d="M545.84 608.121H524.242V629.72H545.84V608.121Z" fill="black"/>
<path d="M587.78 608.121H566.181V629.72H587.78V608.121Z" fill="black"/>
<path d="M629.719 608.121H608.121V629.72H629.719V608.121Z" fill="black"/>
<path d="M231.295 629.092H209.696V650.69H231.295V629.092Z" fill="black"/>
<path d="M252.265 629.092H230.666V650.69H252.265V629.092Z" fill="black"/>
<path d="M294.204 629.092H272.605V650.69H294.204V629.092Z" fill="black"/>
<path d="M315.173 629.092H293.575V650.69H315.173V629.092Z" fill="black"/>
<path d="M336.143 629.092H314.544V650.69H336.143V629.092Z" fill="black"/>
<path d="M357.113 629.092H335.515V650.69H357.113V629.092Z" fill="black"/>
<path d="M378.083 629.092H356.484V650.69H378.083V629.092Z" fill="black"/>
<path d="M420.022 629.092H398.423V650.69H420.022V629.092Z" fill="black"/>
<path d="M461.962 629.092H440.363V650.69H461.962V629.092Z" fill="black"/>
<path d="M503.901 629.092H482.302V650.69H503.901V629.092Z" fill="black"/>
<path d="M545.84 629.092H524.242V650.69H545.84V629.092Z" fill="black"/>
<path d="M566.81 629.092H545.211V650.69H566.81V629.092Z" fill="black"/>
<path d="M587.78 629.092H566.181V650.69H587.78V629.092Z" fill="black"/>
<path d="M608.75 629.092H587.151V650.69H608.75V629.092Z" fill="black"/>
<path d="M41.939 41.9395V188.727H188.727V41.9395H41.939ZM167.757 167.758H62.9087V62.9092H167.757V167.758Z" fill="black"/>
<path d="M503.272 41.9395V188.727H650.06V41.9395H503.272ZM629.09 167.758H524.242V62.9092H629.09V167.758Z" fill="black"/>
<path d="M41.9385 503.272V650.06H188.726V503.272H41.9385ZM167.757 629.091H62.9082V524.242H167.757V629.091Z" fill="black"/>
<path d="M146.787 83.8789H83.8779V146.788H146.787V83.8789Z" fill="black"/>
<path d="M608.12 83.8789H545.211V146.788H608.12V83.8789Z" fill="black"/>
<path d="M146.787 545.212H83.8779V608.121H146.787V545.212Z" fill="black"/>
</g>
<defs>
<clipPath id="clip0_336_2806">
<rect width="692" height="692" rx="49.078" fill="white"/>
</clipPath>
</defs>
</svg>
